<svg width="14" height="15" viewBox="0 0 14 15" fill="none" xmlns="http://www.w3.org/2000/svg">
<path d="M12.2727 1.36364H11.5909V0.681818C11.5909 0.306818 11.2841 0 10.9091 0C10.5341 0 10.2273 0.306818 10.2273 0.681818V1.36364H3.40909V0.681818C3.40909 0.306818 3.10227 0 2.72727 0C2.35227 0 2.04545 0.306818 2.04545 0.681818V1.36364H1.36364C0.613636 1.36364 0 1.97727 0 2.72727V13.6364C0 14.3864 0.613636 15 1.36364 15H12.2727C13.0227 15 13.6364 14.3864 13.6364 13.6364V2.72727C13.6364 1.97727 13.0227 1.36364 12.2727 1.36364ZM11.5909 13.6364H2.04545C1.67045 13.6364 1.36364 13.3295 1.36364 12.9545V4.77273H12.2727V12.9545C12.2727 13.3295 11.9659 13.6364 11.5909 13.6364Z" fill="#283756"/>
</svg>
